<svg class="icon-denom" xmlns="http://www.w3.org/2000/svg" viewBox="0 0 1000 1000"><g fill="#E6007A" fill-rule="nonzero"><ellipse cx="500.241" cy="104.879" rx="180.329" ry="104.879"></ellipse><path d="M248.943 354.935c49.796-86.25 49.472-179.663-.725-208.644-50.197-28.982-131.257 17.444-181.053 103.694-49.797 86.25-49.473 179.664.724 208.645 50.197 28.98 131.257-17.445 181.054-103.695ZM933.239 750.009c49.796-86.25 49.5-179.648-.663-208.61-50.163-28.96-131.196 17.481-180.992 103.731-49.797 86.25-49.5 179.647.663 208.609 50.162 28.961 131.195-17.48 180.992-103.73ZM248.243 853.714c50.197-28.98 50.521-122.394.725-208.644S118.111 512.394 67.914 541.375c-50.196 28.981-50.52 122.395-.724 208.645 49.796 86.25 130.857 132.675 181.053 103.694ZM932.619 458.652c50.162-28.961 50.46-122.359.663-208.609-49.797-86.25-130.83-132.691-180.992-103.73-50.163 28.962-50.46 122.359-.664 208.61 49.797 86.25 130.83 132.69 180.993 103.73Z"></path><ellipse cx="500.241" cy="895.121" rx="180.329" ry="104.879"></ellipse></g></svg>