<svg class="icon-denom" xmlns="http://www.w3.org/2000/svg" viewBox="0 0 96 96"><circle cx="48" cy="48" r="48" fill-rule="evenodd" clip-rule="evenodd" fill="#1969ff"></circle><path d="M45.1 15.3c1.6-.9 4.1-.9 5.7 0L67.3 24c1 .5 1.5 1.3 1.6 2.1v43.7c0 .9-.6 1.7-1.6 2.3l-16.5 8.7c-1.6.9-4.1.9-5.7 0L28.6 72c-1.1-.6-1.6-1.4-1.6-2.3V26c.1-.8.6-1.5 1.6-2.1l16.5-8.6zm21.2 35-15.5 8.2c-1.6.9-4.1.9-5.7 0l-15.5-8.2v19.3l15.5 8.1c.9.5 1.9 1 2.8 1h.1c.9 0 1.8-.5 2.7-.9l15.6-8.3V50.3zM24.4 68.8c0 1.7.2 2.8.6 3.6.3.6.8 1.1 1.7 1.7.2.1.4.3.7.4l.3.2.9.6-1.3 2.2-1-.6-.2-.1c-.3-.2-.5-.3-.8-.5-2.5-1.7-3.4-3.5-3.4-7.4v-.1h2.5zm22.3-30.1c-.1 0-.2.1-.3.1l-16.5 8.7 16.5 8.7c.1.1.2.1.3.1V38.7zm2.6 0v17.8c.1 0 .2-.1.3-.1l16.5-8.7L49.6 39c-.1-.2-.2-.2-.3-.3zm17-9.5L51.5 37l14.8 7.8V29.2zm-36.7 0v15.6L44.4 37l-14.8-7.8zm20-11.6c-.9-.5-2.4-.5-3.3 0l-16.5 8.7L46.3 35c.9.5 2.4.5 3.3 0l16.5-8.7-16.5-8.7zm19.1.9 1 .6.2.1c.3.2.5.3.8.5 2.5 1.7 3.4 3.5 3.4 7.4v.1h-2.6c0-1.7-.2-2.8-.6-3.6-.3-.6-.8-1.1-1.7-1.7-.2-.1-.4-.3-.7-.4l-.3-.2-.9-.6 1.4-2.2z" fill="#fff"></path></svg>