<svg class="icon-denom" xmlns="http://www.w3.org/2000/svg" viewBox="0 0 256 256"><g fill="none" fill-rule="evenodd"><circle cx="128" cy="128" r="128" fill="#FFF" fill-rule="nonzero"></circle><path fill="#2BBDF7" d="m107.816 116.065 20.137 44.651 29.966-17.274.023-.009v-34.576z"></path><path fill="#2891F9" d="m196.707 82.933-18.7-7.045-19.989-1.615v107.445l29.988 17.283 23.67-48.44-14.928-46.836z"></path><path fill="#2BBDF7" d="m194.829 74.31-6.946 17.279h-.009v107.433l29.993-17.279V74.31z"></path><path fill="#2B6DEF" d="m188.007 57-29.993 17.292 29.993 17.288L218 74.292z"></path><path fill="#2891F9" d="M127.97 126.132v-.009L97.982 92.567 38 74.274v107.433l29.984 17.288 8.569-59.454 21.428 3.892v-.015l29.993 17.283v-34.569z"></path><path fill="#2B6DEF" d="M68 57 38 74.288l89.961 51.876 13.594-7.834 16.394-9.458z"></path><path fill="#2BBDF7" d="M68.012 126.131v72.858l29.993-17.283v-38.287z"></path></g></svg>