<svg xmlns="http://www.w3.org/2000/svg" fill="none" viewBox="0 0 48 48"><rect width="48" height="48" fill="#1F1F2D" rx="24"></rect><path fill="#F26057" d="M24 30c-3.315 0-6-2.685-6-6s2.685-6 6-6 6 2.685 6 6-2.685 6-6 6z"></path><path fill="#F26057" d="M24 30a6 6 0 100-12 6 6 0 000 12zM32.4 24c0 3.315 2.685 6 6 6V18c-3.315 0-6 2.685-6 6zM15.6 24c0-3.315-2.685-6-6-6v12c3.315 0 6-2.685 6-6zM24 15.6c3.315 0 6-2.685 6-6H18c0 3.315 2.685 6 6 6zM38.4 15.6v-6h-6c0 3.315 2.685 6 6 6zM15.6 9.6h-6v6c3.315 0 6-2.685 6-6zM24 32.4c-3.315 0-6 2.685-6 6h12c0-3.315-2.685-6-6-6zM38.4 32.4c-3.315 0-6 2.685-6 6h6v-6zM9.6 32.4v6h6c0-3.315-2.685-6-6-6z"></path></svg>