<svg class="icon-denom" xmlns="http://www.w3.org/2000/svg" viewBox="0 0 200 200"><g fill="#FF007A" fill-rule="evenodd"><path fill-rule="nonzero" d="M72.9 45.627c-2.199-.313-2.303-.418-1.257-.522 1.99-.313 6.596.104 9.84.834 7.538 1.773 14.343 6.362 21.566 14.391l1.884 2.19 2.722-.417c11.62-1.877 23.554-.417 33.499 4.171 2.722 1.252 7.014 3.754 7.537 4.38.21.209.524 1.564.733 2.92.733 4.901.419 8.551-1.152 11.367-.837 1.564-.837 1.981-.314 3.337.42 1.042 1.675 1.772 2.827 1.772 2.512 0 5.13-3.962 6.386-9.49l.523-2.19.942 1.044c5.34 5.944 9.527 14.182 10.155 20.022L169 101l-.942-1.356c-1.57-2.398-3.036-3.962-5.025-5.318-3.56-2.398-7.328-3.128-17.273-3.65-9.003-.521-14.132-1.251-19.157-2.92-8.584-2.815-12.981-6.465-23.135-19.918-4.502-5.944-7.328-9.176-10.155-11.888-6.176-5.944-12.353-9.072-20.413-10.323Z"></path><path fill-rule="nonzero" d="M149.174 58.106c.195-4.097.683-6.793 1.755-9.273.39-.97.78-1.833.878-1.833.098 0-.097.755-.39 1.617-.78 2.373-.878 5.715-.39 9.49.683 4.852.975 5.499 5.657 10.782 2.146 2.48 4.682 5.607 5.658 6.901L164 78.162l-1.658-1.725c-2.049-2.156-6.73-6.254-7.803-6.793-.683-.431-.78-.431-1.269.108-.39.431-.487 1.078-.487 4.205-.098 4.852-.683 7.872-2.146 10.999-.78 1.617-.878 1.293-.195-.54.487-1.401.585-2.048.585-6.685 0-9.381-.975-11.645-6.925-15.42-1.464-.97-4-2.372-5.463-3.126-1.56-.755-2.73-1.402-2.633-1.402.195-.216 5.95 1.617 8.193 2.696 3.414 1.51 4 1.617 4.39 1.51.292-.324.487-1.187.585-3.883ZM77.628 72.84c-4.361-5.613-7.165-14.323-6.542-20.808L71.294 50l1.038.194c1.87.29 5.088 1.451 6.646 2.322C83.13 54.84 85 58.033 86.766 65.97c.519 2.323 1.246 5.033 1.557 5.904.52 1.452 2.492 4.84 4.153 6.969 1.143 1.548.416 2.322-2.18 2.129-3.946-.387-9.241-3.775-12.668-8.13ZM143.363 119.857C123.147 111.545 116 104.377 116 92.221c0-1.766.102-3.221.102-3.221.102 0 .817.623 1.736 1.35 4.084 3.325 8.678 4.78 21.441 6.65 7.454 1.143 11.742 1.974 15.622 3.325 12.354 4.156 20.012 12.675 21.85 24.207.51 3.325.204 9.663-.613 12.987-.715 2.598-2.757 7.377-3.267 7.481-.103 0-.307-.52-.307-1.35-.204-4.364-2.348-8.52-5.922-11.74-4.288-3.741-9.801-6.546-23.279-12.053ZM129.614 122.875c-.205-1.546-.718-3.504-1.026-4.329l-.513-1.546.924 1.134c1.333 1.546 2.36 3.401 3.283 5.978.718 1.958.718 2.577.718 5.772 0 3.092-.103 3.814-.718 5.566-1.026 2.783-2.257 4.741-4.31 6.906-3.693 3.814-8.515 5.875-15.39 6.803-1.23.103-4.719.412-7.797.618-7.695.413-12.825 1.237-17.442 2.886-.615.207-1.231.413-1.334.31-.205-.207 2.976-2.062 5.54-3.299 3.592-1.752 7.285-2.68 15.39-4.123 4.002-.618 8.106-1.443 9.132-1.855 10.157-3.195 15.185-11.132 13.543-20.82Z"></path><path fill-rule="nonzero" d="M141.514 138.67c-2.578-5.856-3.174-11.404-1.785-16.643.198-.513.397-1.027.595-1.027.198 0 .793.308 1.388.72 1.19.82 3.67 2.26 10.017 5.855 8.033 4.52 12.595 8.012 15.769 12.019 2.776 3.493 4.462 7.5 5.256 12.43.496 2.774.198 9.451-.496 12.225-2.182 8.732-7.14 15.717-14.38 19.724-1.091.616-1.984 1.027-2.083 1.027-.1 0 .298-1.027.893-2.26 2.38-5.24 2.677-10.273.892-15.923-1.09-3.493-3.372-7.705-7.934-14.793-5.454-8.218-6.744-10.376-8.132-13.355ZM62.154 169.932c7.588-6.496 16.92-11.106 25.535-12.573 3.691-.628 9.844-.419 13.229.524 5.435 1.467 10.357 4.61 12.92 8.486 2.462 3.772 3.59 7.02 4.718 14.249.41 2.829.923 5.762 1.026 6.39.82 3.772 2.46 6.706 4.512 8.277 3.179 2.41 8.717 2.515 14.152.42.923-.315 1.743-.63 1.743-.524.205.21-2.564 2.095-4.41 3.038-2.563 1.362-4.614 1.781-7.383 1.781-4.922 0-9.127-2.62-12.511-7.858-.718-1.047-2.154-4.086-3.384-6.914-3.59-8.487-5.436-11.001-9.64-13.83-3.692-2.41-8.41-2.933-11.998-1.152-4.718 2.305-5.948 8.486-2.667 12.258 1.333 1.571 3.795 2.828 5.846 3.143 3.794.524 7.076-2.515 7.076-6.391 0-2.515-.923-3.981-3.385-5.134-3.281-1.467-6.87.21-6.768 3.458 0 1.362.615 2.2 1.949 2.828.82.42.82.42.205.315-2.974-.629-3.692-4.4-1.334-6.81 2.872-2.934 8.922-1.677 10.973 2.41.82 1.676.923 5.028.205 7.124-1.743 4.61-6.665 7.02-11.69 5.657-3.384-.943-4.82-1.886-8.922-6.181-7.179-7.544-9.948-9.01-20.203-10.582L60 172.027l2.154-2.095Z"></path><path d="M7.48 4.445C31.302 33.698 68.004 79.179 69.845 81.66c1.533 2.067.92 4.031-1.636 5.478-1.431.827-4.396 1.654-5.828 1.654-1.635 0-3.578-.827-4.907-2.17-.92-.93-4.907-6.823-13.904-20.984-6.85-10.854-12.677-19.847-12.779-19.95-.409-.207-.409-.207 12.064 22.327 7.872 14.162 10.428 19.227 10.428 19.847 0 1.344-.41 2.067-2.045 3.928-2.76 3.1-3.987 6.615-4.907 13.954-1.023 8.166-3.783 13.955-11.655 23.775-4.6 5.788-5.316 6.822-6.44 9.2-1.432 2.894-1.841 4.547-2.046 8.269-.204 3.928.205 6.408 1.33 10.13 1.022 3.307 2.146 5.478 4.907 9.716 2.351 3.721 3.782 6.512 3.782 7.546 0 .827.205.827 3.885 0 8.793-2.068 16.051-5.582 20.038-9.923 2.454-2.688 3.067-4.135 3.067-7.856 0-2.378-.102-2.895-.715-4.342-1.023-2.274-2.965-4.134-7.157-7.029-5.52-3.824-7.872-6.925-8.485-11.06-.511-3.514.102-5.892 3.17-12.404 3.168-6.719 3.986-9.51 4.497-16.332.307-4.341.818-6.099 2.045-7.442 1.33-1.447 2.454-1.964 5.623-2.378 5.214-.723 8.588-2.067 11.246-4.651 2.351-2.17 3.374-4.342 3.476-7.546L77 81.04l-1.329-1.448C70.866 74.011 4.311 0 4.005 0 3.902 0 5.538 1.964 7.48 4.445Zm31.387 146.987c1.124-1.964.51-4.444-1.33-5.685-1.738-1.137-4.396-.62-4.396.93 0 .414.205.827.818 1.034.92.517 1.023 1.034.307 2.17-.716 1.138-.716 2.172.204 2.895 1.432 1.137 3.374.517 4.397-1.344ZM81.501 96.275c-2.784.787-5.452 3.71-6.264 6.632-.465 1.798-.233 5.058.58 6.07C77.093 110.55 78.253 111 81.5 111c6.38 0 11.833-2.698 12.413-5.958.58-2.697-1.856-6.407-5.22-8.093-1.74-.899-5.337-1.236-7.193-.674Zm7.425 5.62c.928-1.349.58-2.81-1.16-3.822-3.133-1.91-7.889-.337-7.889 2.586 0 1.46 2.436 3.035 4.756 3.035 1.509 0 3.597-.9 4.293-1.799Z"></path></g></svg>