<svg xmlns="http://www.w3.org/2000/svg" viewBox="0 0 232 232" fill-rule="evenodd" clip-rule="evenodd" image-rendering="optimizeQuality" shape-rendering="geometricPrecision" text-rendering="geometricPrecision"><path fill="#17438c" d="M100.5-.5h30c48.2 8.36 80.366 35.693 96.5 82a385.806 385.806 0 014.5 19v30c-8.36 48.2-35.693 80.366-82 96.5a385.806 385.806 0 01-19 4.5h-30c-48.2-8.36-80.366-35.693-96.5-82a384.785 384.785 0 01-4.5-19v-30C7.86 52.3 35.193 20.134 81.5 4a384.785 384.785 0 0119-4.5z" opacity="0.993"></path><path fill="#fbbd60" d="M63.5 47.5c10.813-1.097 18.48 3.237 23 13 3.333 1.333 6.667 1.333 10 0 5.662-11.494 14.662-15.328 27-11.5 5.197 2.364 8.863 6.197 11 11.5 6.652 2.46 11.152.46 13.5-6 8.855-8.17 18.355-9.002 28.5-2.5 8.169 8.855 9.002 18.355 2.5 28.5-8.862 8.23-18.362 9.063-28.5 2.5a33.004 33.004 0 01-6-9c-3.382-.824-6.716-.657-10 .5-7.76 13.71-18.427 16.544-32 8.5a32.994 32.994 0 01-6-9c-6.684-1.962-11.184.205-13.5 6.5-10.364 9.277-20.697 9.277-31 0-8.579-15.484-4.745-26.484 11.5-33z"></path><path fill="#3581fd" d="M63.5 95.5c16.956-.211 24.79 8.122 23.5 25-4.362 11.913-12.862 16.747-25.5 14.5-12.675-6.355-16.508-16.189-11.5-29.5 3.416-4.942 7.916-8.276 13.5-10zM111.5 95.5c16.956-.211 24.79 8.122 23.5 25-4.362 11.913-12.862 16.747-25.5 14.5-12.675-6.355-16.508-16.189-11.5-29.5 3.416-4.942 7.916-8.276 13.5-10zM159.5 95.5c16.956-.211 24.79 8.122 23.5 25-4.362 11.913-12.862 16.747-25.5 14.5-12.675-6.355-16.508-16.189-11.5-29.5 3.416-4.942 7.916-8.276 13.5-10zM63.5 143.5c16.956-.211 24.79 8.122 23.5 25-4.362 11.913-12.862 16.747-25.5 14.5-12.675-6.355-16.508-16.189-11.5-29.5 3.416-4.942 7.916-8.276 13.5-10zM111.5 143.5c16.956-.211 24.79 8.122 23.5 25-4.362 11.913-12.862 16.747-25.5 14.5-12.675-6.355-16.508-16.189-11.5-29.5 3.416-4.942 7.916-8.276 13.5-10zM159.5 143.5c16.956-.211 24.79 8.122 23.5 25-4.362 11.913-12.862 16.747-25.5 14.5-12.675-6.355-16.508-16.189-11.5-29.5 3.416-4.942 7.916-8.276 13.5-10z"></path></svg>